<svg width="70" height="70" viewBox="0 0 70 70" fill="none" xmlns="http://www.w3.org/2000/svg">
<path d="M35 70C15.6695 70 0 54.3305 0 35C0 15.6695 15.6695 0 35 0C54.3305 0 70 15.6695 70 35C70 54.3305 54.3305 70 35 70ZM17.5 35C17.5 39.6413 19.3437 44.0925 22.6256 47.3744C25.9075 50.6563 30.3587 52.5 35 52.5C39.6413 52.5 44.0925 50.6563 47.3744 47.3744C50.6563 44.0925 52.5 39.6413 52.5 35H45.5C45.5 37.7848 44.3938 40.4555 42.4246 42.4246C40.4555 44.3938 37.7848 45.5 35 45.5C32.2152 45.5 29.5445 44.3938 27.5754 42.4246C25.6062 40.4555 24.5 37.7848 24.5 35H17.5Z" fill="white"/>
</svg>
